solid 
facet normal 0 -1 -4.3698417e-08
 outer loop
  vertex -0.31798032 -0.15999998 -0.36813778
  vertex -0.22598031 -0.16000001 0.31386226
  vertex -0.31798032 -0.16000001 0.31386226
 endloop
endfacet
facet normal 3.148599e-07 -1 -8.6172186e-08
 outer loop
  vertex -0.31798032 -0.15999998 -0.36813778
  vertex -0.21998031 -0.16 0.16286223
  vertex -0.22598031 -0.16000001 0.31386226
 endloop
endfacet
facet normal -0 -1 -9.868316e-08
 outer loop
  vertex -0.21998031 -0.16 0.16286223
  vertex -0.21798031 -0.16 0.16286223
  vertex -0.22598031 -0.16000001 0.31386226
 endloop
endfacet
facet normal -6.028505e-08 -1 -1.0187707e-07
 outer loop
  vertex -0.21798031 -0.16 0.16286223
  vertex 1.9716565e-05 -0.16 0.03386222
  vertex -0.22598031 -0.16000001 0.31386226
 endloop
endfacet
facet normal 0 -1 -5.321843e-08
 outer loop
  vertex 1.9716565e-05 -0.16 0.03386222
  vertex 0.31801972 -0.16000001 0.31386226
  vertex 0.22701971 -0.16000001 0.31386226
 endloop
endfacet
facet normal 9.6026056e-08 -1 -1.6227658e-07
 outer loop
  vertex 1.9716565e-05 -0.16 0.03386222
  vertex 0.21801971 -0.16 0.16286223
  vertex 0.31801972 -0.16000001 0.31386226
 endloop
endfacet
facet normal -0 -1 -9.868316e-08
 outer loop
  vertex 0.21801971 -0.16 0.16286223
  vertex 0.22001968 -0.16 0.16286223
  vertex 0.31801972 -0.16000001 0.31386226
 endloop
endfacet
facet normal -8.4721385e-08 -1 -4.3698417e-08
 outer loop
  vertex 0.22001968 -0.16 0.16286223
  vertex 0.31801972 -0.15999998 -0.36813778
  vertex 0.31801972 -0.16000001 0.31386226
 endloop
endfacet
facet normal -0 -1 -2.806245e-08
 outer loop
  vertex -0.31798032 -0.15999998 -0.36813778
  vertex -0.21998031 -0.15999998 -0.36813778
  vertex -0.21998031 -0.16 0.16286223
 endloop
endfacet
facet normal 0 -1 -0
 outer loop
  vertex -0.007980299 -0.16 -0.10113778
  vertex 1.9716565e-05 -0.16 0.03386222
  vertex -0.21798031 -0.16 0.16286223
 endloop
endfacet
facet normal -0 -1 0
 outer loop
  vertex 1.9716565e-05 -0.16 0.03386222
  vertex 0.008019703 -0.16 -0.10113778
  vertex 0.21801971 -0.16 0.16286223
 endloop
endfacet
facet normal -0 -1 -2.8062448e-08
 outer loop
  vertex 0.22001968 -0.15999998 -0.36813778
  vertex 0.31801972 -0.15999998 -0.36813778
  vertex 0.22001968 -0.16 0.16286223
 endloop
endfacet
facet normal -0 -1 -0
 outer loop
  vertex -0.007980299 -0.16 -0.10113778
  vertex 0.008019703 -0.16 -0.10113778
  vertex 1.9716565e-05 -0.16 0.03386222
 endloop
endfacet
facet normal 0 1 4.3698417e-08
 outer loop
  vertex -0.31798032 0.16000001 -0.36813778
  vertex -0.31798032 0.15999998 0.31386226
  vertex -0.22598031 0.15999998 0.31386226
 endloop
endfacet
facet normal -3.1485988e-07 1 8.6172186e-08
 outer loop
  vertex -0.31798032 0.16000001 -0.36813778
  vertex -0.22598031 0.15999998 0.31386226
  vertex -0.21998031 0.16 0.16286223
 endloop
endfacet
facet normal 0 1 9.868317e-08
 outer loop
  vertex -0.21998031 0.16 0.16286223
  vertex -0.22598031 0.15999998 0.31386226
  vertex -0.21798031 0.16 0.16286223
 endloop
endfacet
facet normal 6.0285046e-08 1 1.0187707e-07
 outer loop
  vertex -0.21798031 0.16 0.16286223
  vertex -0.22598031 0.15999998 0.31386226
  vertex 1.9716565e-05 0.16 0.033862233
 endloop
endfacet
facet normal 0 1 5.321843e-08
 outer loop
  vertex 1.9716565e-05 0.16 0.033862233
  vertex 0.22701971 0.15999998 0.31386226
  vertex 0.31801972 0.15999998 0.31386226
 endloop
endfacet
facet normal -9.602605e-08 1 1.6227658e-07
 outer loop
  vertex 1.9716565e-05 0.16 0.033862233
  vertex 0.31801972 0.15999998 0.31386226
  vertex 0.21801971 0.16 0.16286223
 endloop
endfacet
facet normal 0 1 9.8683145e-08
 outer loop
  vertex 0.21801971 0.16 0.16286223
  vertex 0.31801972 0.15999998 0.31386226
  vertex 0.22001968 0.16 0.16286223
 endloop
endfacet
facet normal 8.472138e-08 1 4.3698417e-08
 outer loop
  vertex 0.22001968 0.16 0.16286223
  vertex 0.31801972 0.15999998 0.31386226
  vertex 0.31801972 0.16000001 -0.36813778
 endloop
endfacet
facet normal 0 1 2.806245e-08
 outer loop
  vertex -0.31798032 0.16000001 -0.36813778
  vertex -0.21998031 0.16 0.16286223
  vertex -0.21998031 0.16000001 -0.36813778
 endloop
endfacet
facet normal 0 1 0
 outer loop
  vertex -0.007980299 0.16 -0.101137765
  vertex -0.21798031 0.16 0.16286223
  vertex 1.9716565e-05 0.16 0.033862233
 endloop
endfacet
facet normal 0 1 -0
 outer loop
  vertex 1.9716565e-05 0.16 0.033862233
  vertex 0.21801971 0.16 0.16286223
  vertex 0.008019703 0.16 -0.101137765
 endloop
endfacet
facet normal 0 1 2.8062448e-08
 outer loop
  vertex 0.22001968 0.16000001 -0.36813778
  vertex 0.22001968 0.16 0.16286223
  vertex 0.31801972 0.16000001 -0.36813778
 endloop
endfacet
facet normal 0 1 0
 outer loop
  vertex -0.007980299 0.16 -0.101137765
  vertex 1.9716565e-05 0.16 0.033862233
  vertex 0.008019703 0.16 -0.101137765
 endloop
endfacet
facet normal -1 -0 -0
 outer loop
  vertex 0.22001968 -0.15999998 -0.36813778
  vertex 0.22001968 -0.16 0.16286223
  vertex 0.22001968 0.16 0.16286223
 endloop
endfacet
facet normal -1 -0 0
 outer loop
  vertex 0.22001968 -0.15999998 -0.36813778
  vertex 0.22001968 0.16 0.16286223
  vertex 0.22001968 0.16000001 -0.36813778
 endloop
endfacet
facet normal 0 0 -1
 outer loop
  vertex 0.22001968 -0.16 0.16286223
  vertex 0.21801971 -0.16 0.16286223
  vertex 0.21801971 0.16 0.16286223
 endloop
endfacet
facet normal -0 -0 -1
 outer loop
  vertex 0.22001968 -0.16 0.16286223
  vertex 0.21801971 0.16 0.16286223
  vertex 0.22001968 0.16 0.16286223
 endloop
endfacet
facet normal 0.782601 2.8988513e-08 -0.62252355
 outer loop
  vertex 0.21801971 -0.16 0.16286223
  vertex 0.008019703 -0.16 -0.10113778
  vertex 0.008019703 0.16 -0.101137765
 endloop
endfacet
facet normal 0.782601 0 -0.62252355
 outer loop
  vertex 0.21801971 -0.16 0.16286223
  vertex 0.008019703 0.16 -0.101137765
  vertex 0.21801971 0.16 0.16286223
 endloop
endfacet
facet normal 0 4.656613e-08 -1
 outer loop
  vertex 0.008019703 -0.16 -0.10113778
  vertex -0.007980299 -0.16 -0.10113778
  vertex -0.007980299 0.16 -0.101137765
 endloop
endfacet
facet normal 0 4.656613e-08 -1
 outer loop
  vertex 0.008019703 -0.16 -0.10113778
  vertex -0.007980299 0.16 -0.101137765
  vertex 0.008019703 0.16 -0.101137765
 endloop
endfacet
facet normal -0.782601 -0 -0.62252355
 outer loop
  vertex -0.007980299 -0.16 -0.10113778
  vertex -0.21798031 -0.16 0.16286223
  vertex -0.21798031 0.16 0.16286223
 endloop
endfacet
facet normal -0.782601 0 -0.62252355
 outer loop
  vertex -0.007980299 -0.16 -0.10113778
  vertex -0.21798031 0.16 0.16286223
  vertex -0.007980299 0.16 -0.101137765
 endloop
endfacet
facet normal 0 0 -1
 outer loop
  vertex -0.21798031 -0.16 0.16286223
  vertex -0.21998031 -0.16 0.16286223
  vertex -0.21998031 0.16 0.16286223
 endloop
endfacet
facet normal -0 -0 -1
 outer loop
  vertex -0.21798031 -0.16 0.16286223
  vertex -0.21998031 0.16 0.16286223
  vertex -0.21798031 0.16 0.16286223
 endloop
endfacet
facet normal 1 0 0
 outer loop
  vertex -0.21998031 -0.16 0.16286223
  vertex -0.21998031 -0.15999998 -0.36813778
  vertex -0.21998031 0.16000001 -0.36813778
 endloop
endfacet
facet normal 1 0 0
 outer loop
  vertex -0.21998031 -0.16 0.16286223
  vertex -0.21998031 0.16000001 -0.36813778
  vertex -0.21998031 0.16 0.16286223
 endloop
endfacet
facet normal 0 0 -1
 outer loop
  vertex -0.21998031 -0.15999998 -0.36813778
  vertex -0.31798032 -0.15999998 -0.36813778
  vertex -0.31798032 0.16000001 -0.36813778
 endloop
endfacet
facet normal -0 -0 -1
 outer loop
  vertex -0.21998031 -0.15999998 -0.36813778
  vertex -0.31798032 0.16000001 -0.36813778
  vertex -0.21998031 0.16000001 -0.36813778
 endloop
endfacet
facet normal -1 -0 -0
 outer loop
  vertex -0.31798032 -0.15999998 -0.36813778
  vertex -0.31798032 -0.16000001 0.31386226
  vertex -0.31798032 0.15999998 0.31386226
 endloop
endfacet
facet normal -1 -0 0
 outer loop
  vertex -0.31798032 -0.15999998 -0.36813778
  vertex -0.31798032 0.15999998 0.31386226
  vertex -0.31798032 0.16000001 -0.36813778
 endloop
endfacet
facet normal 0 0 1
 outer loop
  vertex -0.31798032 -0.16000001 0.31386226
  vertex -0.22598031 -0.16000001 0.31386226
  vertex -0.22598031 0.15999998 0.31386226
 endloop
endfacet
facet normal -0 0 1
 outer loop
  vertex -0.31798032 -0.16000001 0.31386226
  vertex -0.22598031 0.15999998 0.31386226
  vertex -0.31798032 0.15999998 0.31386226
 endloop
endfacet
facet normal 0.77815014 -2.9247179e-08 0.62807834
 outer loop
  vertex -0.22598031 -0.16000001 0.31386226
  vertex 1.9716565e-05 -0.16 0.03386222
  vertex 1.9716565e-05 0.16 0.033862233
 endloop
endfacet
facet normal 0.7781501 0 0.62807834
 outer loop
  vertex -0.22598031 -0.16000001 0.31386226
  vertex 1.9716565e-05 0.16 0.033862233
  vertex -0.22598031 0.15999998 0.31386226
 endloop
endfacet
facet normal -0.77679247 0 0.6297567
 outer loop
  vertex 1.9716565e-05 -0.16 0.03386222
  vertex 0.22701971 -0.16000001 0.31386226
  vertex 0.22701971 0.15999998 0.31386226
 endloop
endfacet
facet normal -0.7767925 0 0.6297566
 outer loop
  vertex 1.9716565e-05 -0.16 0.03386222
  vertex 0.22701971 0.15999998 0.31386226
  vertex 1.9716565e-05 0.16 0.033862233
 endloop
endfacet
facet normal 0 0 1
 outer loop
  vertex 0.22701971 -0.16000001 0.31386226
  vertex 0.31801972 -0.16000001 0.31386226
  vertex 0.31801972 0.15999998 0.31386226
 endloop
endfacet
facet normal -0 0 1
 outer loop
  vertex 0.22701971 -0.16000001 0.31386226
  vertex 0.31801972 0.15999998 0.31386226
  vertex 0.22701971 0.15999998 0.31386226
 endloop
endfacet
facet normal 1 0 0
 outer loop
  vertex 0.31801972 -0.16000001 0.31386226
  vertex 0.31801972 -0.15999998 -0.36813778
  vertex 0.31801972 0.16000001 -0.36813778
 endloop
endfacet
facet normal 1 0 0
 outer loop
  vertex 0.31801972 -0.16000001 0.31386226
  vertex 0.31801972 0.16000001 -0.36813778
  vertex 0.31801972 0.15999998 0.31386226
 endloop
endfacet
facet normal 0 0 -1
 outer loop
  vertex 0.31801972 -0.15999998 -0.36813778
  vertex 0.22001968 -0.15999998 -0.36813778
  vertex 0.22001968 0.16000001 -0.36813778
 endloop
endfacet
facet normal -0 -0 -1
 outer loop
  vertex 0.31801972 -0.15999998 -0.36813778
  vertex 0.22001968 0.16000001 -0.36813778
  vertex 0.31801972 0.16000001 -0.36813778
 endloop
endfacet
endsolid 
